<svg width="12" height="13" viewBox="0 0 12 13" fill="none" xmlns="http://www.w3.org/2000/svg">
<g clip-path="url(#clip0_4_444)">
<path fill-rule="evenodd" clip-rule="evenodd" d="M5.6724 0.822427L4.12365 4.15243L0.426151 4.62868C0.354618 4.63762 0.287177 4.66699 0.231906 4.71327C0.176634 4.75955 0.135875 4.82078 0.114507 4.88963C0.0931399 4.95848 0.0920707 5.03203 0.111428 5.10148C0.130785 5.17092 0.169748 5.23331 0.223651 5.28118L2.96115 7.74493L2.2224 11.4387C2.20849 11.5093 2.21519 11.5824 2.24171 11.6493C2.26823 11.7163 2.31345 11.7741 2.37197 11.816C2.43049 11.858 2.49984 11.8821 2.57173 11.8857C2.64362 11.8893 2.71502 11.8721 2.7774 11.8362L6.0099 9.96118L9.24615 11.8362C9.30853 11.8721 9.37993 11.8893 9.45183 11.8857C9.52372 11.8821 9.59306 11.858 9.65158 11.816C9.7101 11.7741 9.75532 11.7163 9.78184 11.6493C9.80836 11.5824 9.81507 11.5093 9.80115 11.4387L9.0624 7.74493L11.7999 5.28118C11.8527 5.23286 11.8906 5.17043 11.9091 5.10126C11.9276 5.0321 11.9258 4.95909 11.9042 4.89087C11.8825 4.82265 11.8417 4.76206 11.7867 4.71626C11.7317 4.67046 11.6647 4.64137 11.5937 4.63243L7.89615 4.15243L6.35115 0.822427C6.32132 0.756957 6.27329 0.701449 6.21278 0.662525C6.15227 0.623602 6.08185 0.602905 6.0099 0.602905C5.93796 0.602905 5.86753 0.623602 5.80702 0.662525C5.74651 0.701449 5.69848 0.756957 5.66865 0.822427H5.6724Z" fill="#222222"/>
</g>
<defs>
<clipPath id="clip0_4_444">
<rect width="12" height="12" fill="white" transform="translate(0.0100098 0.22998)"/>
</clipPath>
</defs>
</svg>
