<svg width="12" height="13" viewBox="0 0 12 13" fill="none" xmlns="http://www.w3.org/2000/svg">
<g clip-path="url(#clip0_23_59)">
<path fill-rule="evenodd" clip-rule="evenodd" d="M5.6724 1.55253L4.12365 4.88253L0.426151 5.35878C0.354618 5.36772 0.287177 5.39709 0.231906 5.44337C0.176634 5.48965 0.135875 5.55088 0.114507 5.61974C0.0931399 5.68859 0.0920707 5.76214 0.111428 5.83158C0.130785 5.90102 0.169748 5.96341 0.223651 6.01128L2.96115 8.47503L2.2224 12.1688C2.20849 12.2394 2.21519 12.3125 2.24171 12.3795C2.26823 12.4464 2.31345 12.5042 2.37197 12.5461C2.43049 12.5881 2.49984 12.6122 2.57173 12.6158C2.64362 12.6194 2.71502 12.6022 2.7774 12.5663L6.0099 10.6913L9.24615 12.5663C9.30853 12.6022 9.37993 12.6194 9.45183 12.6158C9.52372 12.6122 9.59306 12.5881 9.65158 12.5461C9.7101 12.5042 9.75532 12.4464 9.78184 12.3795C9.80836 12.3125 9.81507 12.2394 9.80115 12.1688L9.0624 8.47503L11.7999 6.01128C11.8527 5.96296 11.8906 5.90053 11.9091 5.83137C11.9276 5.7622 11.9259 5.6892 11.9042 5.62097C11.8825 5.55275 11.8417 5.49216 11.7867 5.44636C11.7317 5.40057 11.6647 5.37148 11.5937 5.36253L7.89615 4.88253L6.35115 1.55253C6.32132 1.48706 6.27329 1.43155 6.21278 1.39263C6.15227 1.3537 6.08185 1.33301 6.0099 1.33301C5.93796 1.33301 5.86753 1.3537 5.80702 1.39263C5.74651 1.43155 5.69848 1.48706 5.66865 1.55253H5.6724Z" fill="#222222"/>
</g>
<defs>
<clipPath id="clip0_23_59">
<rect width="12" height="12" fill="white" transform="translate(0.0100098 0.959961)"/>
</clipPath>
</defs>
</svg>
