<svg width="13" height="13" viewBox="0 0 13 13" fill="none" xmlns="http://www.w3.org/2000/svg">
<g clip-path="url(#clip0_23_103)">
<path fill-rule="evenodd" clip-rule="evenodd" d="M5.99247 1.55253L4.44372 4.88253L0.746219 5.35878C0.674686 5.36772 0.607246 5.39709 0.551974 5.44337C0.496703 5.48965 0.455943 5.55088 0.434576 5.61974C0.413208 5.68859 0.412139 5.76214 0.431496 5.83158C0.450853 5.90102 0.489816 5.96341 0.543719 6.01128L3.28122 8.47503L2.54247 12.1688C2.52855 12.2394 2.53526 12.3125 2.56178 12.3795C2.5883 12.4464 2.63352 12.5042 2.69204 12.5461C2.75056 12.5881 2.8199 12.6122 2.8918 12.6158C2.96369 12.6194 3.03509 12.6022 3.09747 12.5663L6.32997 10.6913L9.56622 12.5663C9.6286 12.6022 9.7 12.6194 9.77189 12.6158C9.84378 12.6122 9.91313 12.5881 9.97165 12.5461C10.0302 12.5042 10.0754 12.4464 10.1019 12.3795C10.1284 12.3125 10.1351 12.2394 10.1212 12.1688L9.38247 8.47503L12.12 6.01128C12.1728 5.96296 12.2107 5.90053 12.2292 5.83137C12.2476 5.7622 12.2459 5.6892 12.2242 5.62097C12.2025 5.55275 12.1618 5.49216 12.1068 5.44636C12.0517 5.40057 11.9847 5.37148 11.9137 5.36253L8.21622 4.88253L6.67122 1.55253C6.64139 1.48706 6.59336 1.43155 6.53285 1.39263C6.47234 1.3537 6.40192 1.33301 6.32997 1.33301C6.25802 1.33301 6.1876 1.3537 6.12709 1.39263C6.06658 1.43155 6.01855 1.48706 5.98872 1.55253H5.99247Z" fill="#222222"/>
</g>
<defs>
<clipPath id="clip0_23_103">
<rect width="12" height="12" fill="white" transform="translate(0.329956 0.959961)"/>
</clipPath>
</defs>
</svg>
