<svg width="13" height="13" viewBox="0 0 13 13" fill="none" xmlns="http://www.w3.org/2000/svg">
<g clip-path="url(#clip0_23_37)">
<path fill-rule="evenodd" clip-rule="evenodd" d="M5.99247 0.822427L4.44372 4.15243L0.746219 4.62868C0.674686 4.63762 0.607246 4.66699 0.551974 4.71327C0.496703 4.75955 0.455943 4.82078 0.434576 4.88963C0.413208 4.95848 0.412139 5.03203 0.431496 5.10148C0.450853 5.17092 0.489816 5.23331 0.543719 5.28118L3.28122 7.74493L2.54247 11.4387C2.52855 11.5093 2.53526 11.5824 2.56178 11.6493C2.5883 11.7163 2.63352 11.7741 2.69204 11.816C2.75056 11.858 2.8199 11.8821 2.8918 11.8857C2.96369 11.8893 3.03509 11.8721 3.09747 11.8362L6.32997 9.96118L9.56622 11.8362C9.6286 11.8721 9.7 11.8893 9.77189 11.8857C9.84378 11.8821 9.91313 11.858 9.97165 11.816C10.0302 11.7741 10.0754 11.7163 10.1019 11.6493C10.1284 11.5824 10.1351 11.5093 10.1212 11.4387L9.38247 7.74493L12.12 5.28118C12.1728 5.23286 12.2107 5.17043 12.2292 5.10126C12.2476 5.0321 12.2459 4.95909 12.2242 4.89087C12.2025 4.82265 12.1618 4.76206 12.1068 4.71626C12.0517 4.67046 11.9847 4.64137 11.9137 4.63243L8.21622 4.15243L6.67122 0.822427C6.64139 0.756957 6.59336 0.701449 6.53285 0.662525C6.47234 0.623602 6.40192 0.602905 6.32997 0.602905C6.25802 0.602905 6.1876 0.623602 6.12709 0.662525C6.06658 0.701449 6.01855 0.756957 5.98872 0.822427H5.99247Z" fill="#222222"/>
</g>
<defs>
<clipPath id="clip0_23_37">
<rect width="12" height="12" fill="white" transform="translate(0.329956 0.22998)"/>
</clipPath>
</defs>
</svg>
