<svg width="13" height="13" viewBox="0 0 13 13" fill="none" xmlns="http://www.w3.org/2000/svg">
<g clip-path="url(#clip0_23_81)">
<path fill-rule="evenodd" clip-rule="evenodd" d="M6.33244 1.55253L4.78369 4.88253L1.08618 5.35878C1.01465 5.36772 0.947212 5.39709 0.89194 5.44337C0.836669 5.48965 0.795909 5.55088 0.774541 5.61974C0.753174 5.68859 0.752105 5.76214 0.771462 5.83158C0.790819 5.90102 0.829782 5.96341 0.883685 6.01128L3.62119 8.47503L2.88244 12.1688C2.86852 12.2394 2.87522 12.3125 2.90175 12.3795C2.92827 12.4464 2.97349 12.5042 3.03201 12.5461C3.09053 12.5881 3.15987 12.6122 3.23176 12.6158C3.30365 12.6194 3.37505 12.6022 3.43744 12.5663L6.66994 10.6913L9.90619 12.5663C9.96857 12.6022 10.04 12.6194 10.1119 12.6158C10.1838 12.6122 10.2531 12.5881 10.3116 12.5461C10.3701 12.5042 10.4154 12.4464 10.4419 12.3795C10.4684 12.3125 10.4751 12.2394 10.4612 12.1688L9.72244 8.47503L12.4599 6.01128C12.5128 5.96296 12.5506 5.90053 12.5691 5.83137C12.5876 5.7622 12.5859 5.6892 12.5642 5.62097C12.5425 5.55275 12.5017 5.49216 12.4467 5.44636C12.3917 5.40057 12.3247 5.37148 12.2537 5.36253L8.55619 4.88253L7.01119 1.55253C6.98136 1.48706 6.93332 1.43155 6.87282 1.39263C6.81231 1.3537 6.74188 1.33301 6.66994 1.33301C6.59799 1.33301 6.52756 1.3537 6.46706 1.39263C6.40655 1.43155 6.35851 1.48706 6.32869 1.55253H6.33244Z" fill="#222222"/>
</g>
<defs>
<clipPath id="clip0_23_81">
<rect width="12" height="12" fill="white" transform="translate(0.669922 0.959961)"/>
</clipPath>
</defs>
</svg>
