<svg width="13" height="13" viewBox="0 0 13 13" fill="none" xmlns="http://www.w3.org/2000/svg">
<g clip-path="url(#clip0_23_15)">
<path fill-rule="evenodd" clip-rule="evenodd" d="M6.33244 0.822427L4.78369 4.15243L1.08618 4.62868C1.01465 4.63762 0.947212 4.66699 0.89194 4.71327C0.836669 4.75955 0.795909 4.82078 0.774541 4.88963C0.753174 4.95848 0.752105 5.03203 0.771462 5.10148C0.790819 5.17092 0.829782 5.23331 0.883685 5.28118L3.62119 7.74493L2.88244 11.4387C2.86852 11.5093 2.87522 11.5824 2.90175 11.6493C2.92827 11.7163 2.97349 11.7741 3.03201 11.816C3.09053 11.858 3.15987 11.8821 3.23176 11.8857C3.30365 11.8893 3.37505 11.8721 3.43744 11.8362L6.66994 9.96118L9.90619 11.8362C9.96857 11.8721 10.04 11.8893 10.1119 11.8857C10.1838 11.8821 10.2531 11.858 10.3116 11.816C10.3701 11.7741 10.4154 11.7163 10.4419 11.6493C10.4684 11.5824 10.4751 11.5093 10.4612 11.4387L9.72244 7.74493L12.4599 5.28118C12.5128 5.23286 12.5506 5.17043 12.5691 5.10126C12.5876 5.0321 12.5859 4.95909 12.5642 4.89087C12.5425 4.82265 12.5017 4.76206 12.4467 4.71626C12.3917 4.67046 12.3247 4.64137 12.2537 4.63243L8.55619 4.15243L7.01119 0.822427C6.98136 0.756957 6.93332 0.701449 6.87282 0.662525C6.81231 0.623602 6.74188 0.602905 6.66994 0.602905C6.59799 0.602905 6.52756 0.623602 6.46706 0.662525C6.40655 0.701449 6.35851 0.756957 6.32869 0.822427H6.33244Z" fill="#222222"/>
</g>
<defs>
<clipPath id="clip0_23_15">
<rect width="12" height="12" fill="white" transform="translate(0.669922 0.22998)"/>
</clipPath>
</defs>
</svg>
